<svg xmlns="http://www.w3.org/2000/svg" width="137" height="32" viewBox="0 0 137 32"><g fill="#373742"><path d="M15.883 29.39c-1.547 1.067-3.365 1.715-5.23 1.715-4.32 0-10.64-3.798-10.64-15.52C.013 6.83 4.875.02 10.923.02c1.957 0 3.776.974 5.095 2.456L17.11.483h.82v8.433h-.91c-.683-3.384-1.865-7.784-6.003-7.784-3.865 0-3.957 4.91-4.003 7.83v13.434c0 5.28 1.547 7.597 4.548 7.597 2.956 0 5.14-3.798 5.64-7.922h.955v8.717H17.2l-1.317-1.39m14.977.595v1.117H19.97v-1.12h2.377V2.05H19.97V.934h10.89v1.118h-2.38v27.936h2.38m9.196-27.936h-.82c-4.192 0-5.104 6.658-5.332 8.52h-1.23l.32-9.638h20.23l.317 9.638h-1.23c-.222-1.862-1.14-8.52-5.33-8.52h-.82v27.936h3.1v1.117h-12.3v-1.117h3.1V2.052m31.39 27.936v1.117H59.74v-1.117h2.67V17.603l-6.323-15.55H54.45V.933h9.88v1.12h-1.967l5.29 12.85 5.294-12.85h-2.155V.933h5.43v1.12h-1.777l-5.76 14.105v13.827h2.763M86.804 11.13h-.094l-2.657 9.685h5.36l-2.61-9.685zm13.01 18.858v1.117h-10.12v-1.117h2.192l-2.145-7.916h-6.06l-2.1 7.916h2.8v1.117h-6.34v-1.117h2.19L88.34.934h1.82l7.927 29.054h1.726z"/><path d="M99.813 31.105h3.63v-3.657h-3.63m11.154 3.657h-5.71v-1.117h2.01V2.052h-2.01V.934h8.68l4.385 18.67h.09l4.706-18.67h8.45v1.118h-1.917v27.936h1.92v1.117h-10.05v-1.117h2.33V2.938h-.09l-7.033 28.167H115.4l-6.67-28.773h-.09v27.656h2.33v1.117m21.505 0h3.63v-3.657h-3.63"/></g></svg>
