<svg xmlns="http://www.w3.org/2000/svg" width="23" height="40" viewBox="0 0 23 40"><path fill="#c4c4d6" d="M18.507 20.436l-.317.255 3.712 12.21c1.298 4.07-1.04 7.1-5.212 7.1H5.46C1.69 40-.11 36.468.797 33.04l.032-.11 3.72-12.24-.32-.254C1.553 18.246 0 14.976 0 11.49 0 5.144 5.09 0 11.37 0c6.28 0 11.37 5.144 11.37 11.49 0 3.488-1.55 6.757-4.235 8.946h.002zm-3.382-.48l.484-.22-1.94-6.367c-1.01-3.33-3.6-3.32-4.6 0l-1.94 6.36.48.22c1.18.536 2.46.81 3.754.81 1.297 0 2.57-.274 3.754-.81zM11.37 2.216c-5.07 0-9.18 4.15-9.18 9.274 0 2.284.825 4.47 2.33 6.173l.706.8 1.748-5.744c1.647-5.42 7.145-5.42 8.792 0l1.746 5.74.706-.8c1.51-1.705 2.333-3.89 2.333-6.177 0-5.125-4.11-9.276-9.18-9.276zm4.893 19.67l-.608.25c-1.363.56-2.812.844-4.285.844-1.47 0-2.923-.285-4.286-.845l-.606-.25L2.91 33.62c-.513 1.946.22 4.173 2.55 4.173h11.23c2.662 0 3.972-1.554 3.127-4.202L16.263 21.9v-.007z"/></svg>
