<svg xmlns="http://www.w3.org/2000/svg" width="474" height="214" viewBox="0 0 474 214" xmlns:xlink="http://www.w3.org/1999/xlink"><defs><path id="a" d="M0 103h40v111H0z"/><path id="b" d="M0 129h40v29H0z"/><path id="c" d="M74 64h40v150H74z"/><path id="d" d="M74 96h40v29H74z"/><path id="e" d="M148 46h40v168h-40z"/><path id="f" d="M148 63h40v29h-40z"/><path id="g" d="M222 24h40v190h-40z"/><path id="h" d="M222 60h40v29h-40z"/><path id="i" d="M296 46h40v168h-40z"/><path id="j" d="M296 60h40v29h-40z"/><path id="k" d="M370 0h40v214h-40z"/><path id="l" d="M370 20h40v29h-40z"/></defs><g fill="none" fill-rule="evenodd"><path stroke="#464672" stroke-width="2" d="M1.5 213h468.027" stroke-linecap="square"/><g transform="translate(29)"><use fill="#FFF" xlink:href="#a"/><path stroke="#464672" stroke-width="2" d="M1 104h38v109H1z"/></g><g transform="translate(29)"><use fill="#A6A6C1" xlink:href="#b"/><path stroke="#464672" stroke-width="2" d="M1 130h38v27H1z"/></g><g transform="translate(29)"><use fill="#A6A6C1" xlink:href="#c"/><path stroke="#464672" stroke-width="2" d="M75 65h38v148H75z"/></g><g transform="translate(29)"><use fill="#FFF" xlink:href="#d"/><path stroke="#464672" stroke-width="2" d="M75 97h38v27H75z"/></g><g transform="translate(29)"><use fill="#FFF" xlink:href="#e"/><path stroke="#464672" stroke-width="2" d="M149 47h38v166h-38z"/></g><g transform="translate(29)"><use fill="#A6A6C1" xlink:href="#f"/><path stroke="#464672" stroke-width="2" d="M149 64h38v27h-38z"/></g><g transform="translate(29)"><use fill="#A6A6C1" xlink:href="#g"/><path stroke="#464672" stroke-width="2" d="M223 25h38v188h-38z"/></g><g transform="translate(29)"><use fill="#FFF" xlink:href="#h"/><path stroke="#464672" stroke-width="2" d="M223 61h38v27h-38z"/></g><g transform="translate(29)"><use fill="#FFF" xlink:href="#i"/><path stroke="#464672" stroke-width="2" d="M297 47h38v166h-38z"/></g><g transform="translate(29)"><use fill="#A6A6C1" xlink:href="#j"/><path stroke="#464672" stroke-width="2" d="M297 61h38v27h-38z"/></g><g transform="translate(29)"><use fill="#A6A6C1" xlink:href="#k"/><path stroke="#464672" stroke-width="2" d="M371 1h38v212h-38z"/></g><g transform="translate(29)"><use fill="#FFF" xlink:href="#l"/><path stroke="#464672" stroke-width="2" d="M371 21h38v27h-38z"/></g><path stroke="#FF4D62" stroke-width="6" d="M2 163.383l194-88.14h148.352L468.852 6"/><g fill="#FFF" stroke="#FF4D62" stroke-width="2" transform="translate(1 2)"><circle cx="194" cy="74" r="4"/><circle cx="4" cy="160" r="4"/><circle cx="343" cy="73" r="4"/><circle cx="468" cy="4" r="4"/></g></g></svg>