<svg xmlns="http://www.w3.org/2000/svg" width="168" height="29" viewBox="0 0 168 29"><path fill="#373742" fill-rule="evenodd" d="M138.452 8.328l-1.065 3.06h-2.607V7.454c1.412-.432 3.406-1.138 6.066-1.138 4.038 0 6.185 1.573 6.185 4.935v8.15l1.79.74v1.32c-.49.26-1.97.6-3.19.6-1.58 0-2.81-.49-3.04-2.11h-.13c-.67 1.34-2.46 2.14-4.34 2.14-2.68 0-4.37-1.7-4.37-4.2 0-3.06 2.05-3.74 5.37-4.42l2.91-.49v-1.81c0-1.92-.59-2.88-2.52-2.88-.25 0-.72.04-1.03.07m3.55 10.46v-4.24l-1.17.12c-1.17.11-2.12.88-2.12 2.31 0 1.65.92 2.38 1.89 2.38.56 0 1.13-.27 1.41-.57M83.89 8.33l-1.067 3.06h-2.6V7.456c1.415-.432 3.408-1.138 6.066-1.138 4.04 0 6.18 1.573 6.18 4.935v8.15l1.78.733v1.313c-.5.26-1.98.59-3.19.59-1.58 0-2.81-.5-3.04-2.11h-.14c-.68 1.34-2.47 2.14-4.35 2.14-2.69 0-4.38-1.71-4.38-4.2 0-3.07 2.05-3.74 5.37-4.42l2.9-.49v-1.81c0-1.93-.587-2.89-2.52-2.89-.25 0-.725.03-1.03.06m3.55 10.46v-4.23l-1.17.11c-1.166.11-2.12.88-2.12 2.31 0 1.65.92 2.38 1.89 2.38.56 0 1.125-.27 1.4-.57m-84.8-1.27v-8.3H.302V6.95l2.32-.307V3.81l5.01-.692v3.525h3.326v2.574H7.63v7.862c0 1.46.417 2.22 1.883 2.22.528 0 1.24-.06 1.605-.12v1.94c-.82.47-2.527.86-4.105.86-2.99 0-4.39-1.31-4.39-4.48m32.405-2.9h9.028c0-6.3-2.187-8.3-6.723-8.3-4.515 0-7.475 2.87-7.475 7.81 0 5.09 2.684 7.91 7.888 7.91 2.8 0 5.056-1.22 5.755-2.17V18.4c-1.05.327-2.13.518-4.07.518-2.73 0-4.13-1.398-4.4-4.315m2.22-6.47c1.26 0 1.94.534 1.94 4.444l-4.2.245c0-3.526.67-4.686 2.27-4.686M55.44 18.48h-5.043c-.762 0-1.25-.494-1.25-1.01 0-.4.11-1.007.473-1.302.826.25 1.76.37 2.773.37 3.903 0 6.576-1.69 6.576-4.945 0-1.472-.53-2.296-1.5-3.15l.05-.127 2.62.8V6.303h-.3l-3.77.664h-.22c-.94-.343-2.27-.623-3.49-.623-3.91 0-6.61 1.846-6.61 5.1 0 1.983.82 3.44 2.49 4.28v.153c-1.39 1.018-2.52 2.393-2.52 3.613 0 1.162.83 2.513 2.44 2.892v.157c-1.38.47-3.35.98-3.35 2.61 0 2 2.52 3.39 7.29 3.39 5.91 0 8.57-2.38 8.57-5.95 0-2.93-1.93-4.12-5.27-4.12M52.39 8.14c1.094 0 1.805.797 1.805 3.303 0 2.5-.72 3.142-1.805 3.142-1.083 0-1.786-.64-1.786-3.142 0-2.506.69-3.304 1.786-3.304m-.135 18.43c-2.75 0-3.942-.69-3.942-1.73 0-.73.22-1.4.706-1.82h5.93c1.25 0 2.22.17 2.22 1.29 0 1.54-1.47 2.25-4.91 2.25m72.3-19.28v1.54l1.87.77v9.79l-1.79.73v1.56h8.62v-1.56l-1.8-.74V6.3h-.42l-6.48.996m-29.65 0v1.54l1.87.773v9.79l-1.8.73v1.56h9.26v-1.56l-2.43-.74v-8.15c.86-.41 1.99-.54 3.35-.54.44 0 .97.05 1.27.13V6.48c-.17-.057-.5-.08-.75-.08-1.66 0-3.02 1.055-3.91 3.06h-.17V6.3h-.427l-6.28.996m34.01-7.16c1.48 0 2.67 1.18 2.67 2.64 0 1.46-1.194 2.645-2.67 2.645-1.474 0-2.67-1.18-2.67-2.64 0-1.46 1.196-2.64 2.67-2.64m-11.994 18.9V8.92c-.388-.297-.8-.54-1.71-.54-1.58 0-2.79 1.412-2.79 5.644 0 3.705.96 5.314 2.95 5.314.78 0 1.21-.154 1.55-.292m.006-15.58l-2.044-.77V1.15l6.66-.998h.423V18.94l1.78.868v1.48l-6.167.668-.43-.002v-1.557H117c-.63.795-1.93 1.624-3.81 1.624-2.77 0-6.063-1.73-6.063-7.48 0-6.04 3.37-8.21 7.38-8.21.828 0 1.827.19 2.436.63v-3.5M62.75 9.61l-1.873-.775v-1.54L67.36 6.3h.423v10.566c0 1.71.845 2.008 2.118 2.008.94 0 1.32-.162 1.81-.353V9.61l-1.87-.775v-1.54l6.49-.995h.43v12.816l1.86.87v1.298l-6.3.67-.42-.003v-1.99h-.16c-.97 1.19-2.56 2.06-4.61 2.06-3.04 0-4.35-2.14-4.35-4.74V9.61m-50.7 10.52l1.79-.73V3.445L12 2.672v-1.54L18.41.14h.42v8.15H19c1.353-1.22 3.18-1.98 5.227-1.98 2.548 0 3.82 1.26 3.82 4.002v9.08l1.794.73v1.562H21.4v-1.56l1.612-.734v-7.78c0-1.52-.68-2.09-2.046-2.09-.746 0-1.464.13-2.075.38v9.49l1.61.73v1.56h-8.44v-1.56m137.67 0l1.79-.73V9.61l-1.87-.775v-1.54l6.44-.995h.43v1.996h.166c1.36-1.218 3.18-1.98 5.23-1.98 2.547 0 3.817 1.26 3.817 4.008V19.4l1.8.73v1.562h-8.446v-1.56l1.61-.733v-7.78c0-1.52-.676-2.09-2.044-2.09-.75 0-1.47.13-2.08.38v9.49l1.61.73v1.56h-8.43v-1.56"/></svg>
