<svg xmlns="http://www.w3.org/2000/svg" width="182" height="30" viewBox="0 0 182 30"><path fill="#373742" d="M16.332 5.877c-.62 0-1.137-.07-1.723-.138v10.14c0 .24-.04.31-.18.41l-5.79 3.69c.86.41 1.89.69 2.97.69 3.65 0 7.79-2 9.72-6.99.1-.28.34-.35.34.13v.34c0 5.47-4.18 10.39-10.35 10.39C4.6 24.54.56 19.48.56 14.22c0-3.956 2.17-7.64 7.102-9.186.21-.07.243.032.104.14-2.18 1.68-3.35 4.434-3.35 7.19 0 2.923 1.17 5.813 3.79 7.363l1.45-1.1c.485-.377.586-.72.586-1.27V4.843c-1.583-.586-2.996-.93-4.31-.93-1.79 0-3.412.79-5 2.72-.17.204-.275.204-.275 0 .22-3.89 3.7-6.09 7.15-6.09 3.965 0 7.62 1.93 11.62 1.93 1.413 0 2.863-.315 4.07-.968.17-.07.206.068.137.205-1.24 3.1-4.274 4.168-7.31 4.168zM35.095 24.25c-.14.136-.14.102-.243.034l-2.76-2.443c-.276-.24-.413-.44-.413-.89v-9.43c0-.1 0-.2-.14-.31l-.93-.82c-.11-.06-.25-.1-.38-.03l-1.76.83v8.88c0 .14-.04.28.1.38l.79.69c.2.18.55.38.86.28l.27-.1c.34-.14.41.07.21.24l-3.17 2.72c-.14.14-.18.1-.28.03l-2.8-2.48c-.35-.27-.35-.34-.35-.79V5.74c0-.17 0-.21-.18-.345l-.35-.31c-.35-.31-.48-.24-.93-.03l-.69.31c-.11.03-.21-.11-.04-.28l3.66-3.06c.13-.14.13-.1.24-.035l2.2 2.03c.27.275.41.446.41.893v5.74l4.59-2.89c.14-.07.27-.07.38.04l2.24 2.066c.31.27.38.48.38.82v9.43c0 .17 0 .2.17.34l.86.72c.35.31.48.24.93.03l.69-.31c.11-.03.21.1.04.27l-3.65 3.06zm14.69-11.39l-6.105 3.82v2.924c0 .274.034.38.276.48l1.966 1.033c.343.172.93.345 1.277.138l1.82-1.065c.31-.173.55-.07.38.07l-5 4.024c-.11.102-.07.068-.21 0l-4.45-2.34c-.35-.172-.45-.242-.45-.722V10.35c0-.174.07-.242.27-.31l7.28-2.34c.1-.035.2-.07.27.068l2.72 4.817c.07.104.07.207-.07.276zM43.75 9.524l-.07.033v6.678l2.414-1.997c.14-.103.14-.173.07-.274l-2.414-4.44zm31.224-3.646c-.62 0-1.137-.07-1.723-.138v10.148c0 .24-.03.31-.17.413l-5.79 3.69c.86.42 1.9.69 2.97.69 3.66 0 7.8-2 9.73-6.98.11-.27.35-.34.35.14v.35c0 5.47-4.17 10.39-10.34 10.39-6.72 0-10.76-5.06-10.76-10.32 0-3.95 2.17-7.64 7.11-9.18.21-.07.25.04.11.14-2.17 1.69-3.34 4.44-3.34 7.19 0 2.93 1.17 5.82 3.8 7.37l1.45-1.03c.52-.34.59-.72.59-1.27V4.85c-1.59-.588-3-.93-4.31-.93-1.79 0-3.41.79-5 2.72-.17.202-.28.202-.28 0 .2-3.89 3.68-6.09 7.13-6.09 3.97 0 7.62 1.93 11.62 1.93 1.42 0 2.86-.31 4.07-.97.18-.07.21.06.14.2-1.25 3.1-4.28 4.16-7.32 4.16zm17.45 6.984l-6.103 3.82v2.924c0 .274.04.38.28.48l1.97 1.033c.35.17.94.34 1.28.13l1.83-1.07c.31-.18.55-.07.38.07l-5.01 4.03c-.1.1-.07.07-.2 0l-4.45-2.34c-.34-.17-.45-.24-.45-.72V10.35c0-.174.07-.242.28-.31L89.5 7.7c.102-.035.205-.07.276.068l2.724 4.817c.07.104.07.207-.07.276zM86.39 9.524l-.07.033v6.678l2.415-1.997c.137-.103.137-.173.068-.274l-2.414-4.44zM97.252 24.25c-.14.136-.172.102-.275.034l-2.795-2.478c-.344-.276-.344-.344-.344-.79V5.738c0-.173 0-.21-.175-.346l-.343-.31c-.345-.31-.485-.24-.93-.033l-.692.31c-.103.03-.208-.11-.034-.28l3.654-3.06c.138-.14.138-.1.242-.04l2.208 2.03c.277.27.414.44.414.89v15.14c0 .14-.036.27.102.38l.795.68c.2.17.55.38.86.27l.27-.11c.34-.14.41.06.2.24l-3.17 2.72zm14.38-11.39l-6.102 3.82v2.924c0 .274.034.38.276.48l1.965 1.033c.35.172.94.345 1.28.138l1.83-1.065c.31-.173.55-.07.38.07l-5 4.024c-.1.102-.07.068-.2 0l-4.45-2.34c-.34-.172-.45-.242-.45-.722V10.35c0-.174.07-.242.28-.31l7.28-2.34c.11-.035.21-.07.28.068l2.73 4.817c.07.104.07.207-.07.276zm-6.037-3.337l-.065.033v6.678l2.415-1.997c.135-.103.135-.173.067-.274l-2.416-4.44zm18.59 17.1l-3.794 3.062c-.1.102-.17.07-.24.034-2-1.35-3.58-1.97-5.31-1.97-1.2 0-2.41.24-3.96.65-.13.03-.17-.07-.1-.17 1.63-2.45 3.63-3.2 5.49-3.2 2.76 0 5.35 1.68 6.38 2.37l.1-.07c.28-.62.38-1.21.38-1.76 0-1.76-1.45-3.17-3.24-4.06l-3.72 2.75c-.13.1-.24.06-.34-.04l-2.34-2.14c-.34-.31-.41-.45-.41-.8V11.27c0-.17.14-.205.21-.24l7.93-3.27c.21-.1.35-.1.42-.032l2.21 2.2c.28.275.41.482.41.722v9.153c1.45 1.07 2.07 2.135 2.07 3.2 0 1.207-.58 2.376-2.1 3.615zm-4.31-15.242c0-.13-.035-.24-.172-.37l-1.277-1.27c-.068-.07-.103-.03-.208 0l-.83.38V20c0 .55.142.618.692 1.134.31.275.48.38.793.38.277 0 .724-.21 1-.38v-9.74zm15.552.76c-.172.14-.344.21-.515.21-.174 0-.348-.07-.518-.21l-2.104-1.79-.206.17v9.57c0 .21 0 .24.138.35l.552.49c.586.48.723.55 1.345.31l.41-.17c.27-.1.34.04.17.21l-3.56 3c-.14.14-.17.1-.28.03l-2.73-2.44c-.31-.27-.42-.38-.42-.76V11.3l-.83-.86c-.07-.07-.1-.07-.21 0l-1.03.58c-.31.17-.42-.07-.21-.24l3.56-3c.14-.103.21-.103.27-.034l2.42 2.376 2.38-2.34c.13-.104.24-.14.37 0l1.83 1.686c.34.31.55.48.76.48.14 0 .31-.066.52-.203l.48-.31c.31-.21.45.1.27.27l-2.9 2.44zm12.726 12.11c-.137.14-.173.11-.277.04l-3.14-2.75-3.722 2.76c-.137.1-.17.07-.31-.03l-2.38-2.13c-.378-.31-.413-.38-.413-.79V11.28c0-.172.14-.206.21-.24l8-3.303c.14-.07.28-.07.41.068l2.14 2.134c.31.31.42.48.42.68v9.7l.62.55c.76.65.87.62 1.21.44l.49-.24c.31-.17.55-.04.28.2l-3.51 2.96zm-3.416-12.8c0-.2-.032-.31-.204-.48l-1.243-1.24c-.07-.07-.07-.03-.173 0l-.86.38v9.95c0 .35.068.52.31.72l.447.42c.31.28.69.42 1.14.21l.583-.27v-9.67zm19.66 10.29l-3.138 2.41c-.35.28-.42.21-.83-.03l-3.28-1.99v4.03l.93.8c.1.07.1.14 0 .24l-2.73 2.51c-.07.04-.14.1-.28 0l-3.04-2.44c-.11-.07-.07-.13 0-.24l.76-.86v-14.8l-.76-.93c-.04-.03-.07-.03-.14 0l-1.04.52c-.24.14-.41-.03-.21-.2l3.52-2.96c.1-.11.24-.11.31-.04l2.55 2.51 4.62-2.48c.14-.07.24-.03.27 0l2.32 2.14c.17.17.38.45.38.76V21.2c0 .24 0 .38-.25.55zm-4.105-10.18c0-.2-.07-.38-.206-.51l-.966-.93c-.068-.07-.136-.07-.24-.03l-1.725.66v10.9l.966.31c.8.24 1.14.21 1.49-.1l.35-.31c.31-.27.35-.58.35-1.13v-8.85zm17.732 12.7c-.14.14-.14.1-.242.04l-2.76-2.44c-.274-.24-.41-.44-.41-.89v-9.43c0-.1 0-.2-.14-.31l-.932-.82c-.102-.06-.24-.1-.377-.03l-1.76.83v8.88c0 .14-.035.28.104.38l.792.69c.2.17.55.38.86.28l.27-.1c.34-.14.41.07.2.24l-3.17 2.72c-.14.14-.18.11-.28.04l-2.8-2.48c-.35-.27-.35-.34-.35-.79V5.74c0-.173 0-.21-.18-.346l-.35-.31c-.35-.31-.49-.24-.93-.032l-.69.31c-.11.03-.21-.11-.04-.28l3.65-3.06c.14-.14.14-.1.24-.04l2.204 2.03c.274.277.41.448.41.895v5.747l4.586-2.89c.14-.07.28-.07.38.034l2.24 2.067c.31.273.38.48.38.823v9.43c0 .17 0 .205.17.342l.87.72c.34.31.48.24.93.037l.69-.31c.11-.033.21.105.04.276l-3.65 3.07z"/></svg>
