<svg xmlns="http://www.w3.org/2000/svg" width="201" height="41" viewBox="0 0 201 41"><g fill="#373742" fill-rule="evenodd"><path d="M77.424 17.56c-.59-.253-1.36-.19-2-.2 0 .073-.017.144.02.2.072 0 .216.044.216.044v1.032c-.054 0-.18.006-.216.024 0 .072-.02.145.018.197.63-.036 1.234.182 1.82-.016.253-.16.415-.43.415-.74-.018-.2-.072-.44-.262-.54l-.01.01zm-.766 1.083l-.334-.007-.005-1.004c.21-.037.39.018.53.164.19.25.12.72-.2.847zm2.478-8.337c-.002-.003.245.08.245.08l.08.102.12-1.376-.12-.09s-.18.254-.58.254c-.22 0-.45-.046-.65-.055.07.24-.03.52.12.79.16.29.48.34.8.32v-.02zm-.622-.872l.197.073s-.07.154-.03.234c.06.1.15.2.25.15.15-.07.24-.24.18-.37h.14l.02.13c-.02.24-.09.4-.4.4-.29-.02-.39-.32-.35-.58v-.02zm2.69.7c.454-.063.486-.69.47-1.126-.286.146-.412.2-.697.212-.287.01-.523-.274-.523-.274L80.35 9l.27 1.422s.152-.237.585-.3v.013zm-.495-.71h.14c-.06.126.03.3.17.38.1.05.19-.05.25-.146.04-.082-.04-.235-.04-.235l.2-.07c.04.26-.07.568-.35.584-.31.02-.39-.15-.4-.384l.01-.13z"/><path d="M94.78 13.904c0-1.217.307-2.442.906-3.457.28-.49.613-.822.613-.822l-.01-.868c-.35-.02-.69-.146-.92-.43-.24-.263-.32-.454-.32-.864 0-.42.29-.866.74-.993.42-.128.87-.037 1.15.273.22.255.26.483.26.784 0 .373-.24.665-.55.665-.19 0-.41-.046-.53-.274-.09-.164-.1-.482.09-.482.25 0 .02.19.18.255.09.05.2.04.24-.05.04-.1.02-.23-.07-.33-.13-.14-.3-.16-.48-.1-.27.09-.37.39-.3.67.1.4.33.51.64.56l1.08.01.6-.41.74-.37s-.07-.37-.2-.47l-.93.51c-.03-.51-.25-1.1-.64-1.43-.4-.33-1.08-.48-1.69-.22-.72.31-1.04 1.02-.99 1.74-.49.62-1.49 1.14-1.06 2.06-.43.02-.64.53-.93.76l-.57-.47.46-.32c.4-.48.62-1.18.37-1.82-.2-.65-.77-1.31-1.47-1.4-.32-.07-.63 0-.85.2-.16.17-.2.42-.18.61.07.22.25.4.47.38.29-.09-.1-.23 0-.41.03-.14.21-.17.36-.14.21.09.34.33.29.54-.08.18-.27.31-.45.35-1.27-.05-2.63-.97-3.81-.12-.66.33-1 1.01-1.07 1.69-.02.72.23 1.34.75 1.79 1.23 1.03 2.94.24 4.24-.13.23-.05.54-.05.65.19-.56.52-1.17 1.08-1.2 1.84-1.82-.38-3.35-1.24-5.18-1.64-.22.02-.27-.26-.32-.38l.67.24.04-.05c-.29-.53-.52-1.12-.75-1.66.23.02.41.24.64.2V10c-.82-.9-1.14-2.43-2.51-2.67-.04-.27.12-.5.11-.754H83l-1.315.38-.054-.05c.09-.38.35-.68.54-1.01-.11-.16.16-.25.07-.44-.05-.24-.34-.22-.5-.18.04-.62-.59.057-.67-.453-.12-.09-.3-.04-.41.056l-.12-.24c-.14-.04-.32 0-.41.05-.05-.33-.44-.53-.3-.89.15-.02.25.02.4.04.02-.15.02-.4 0-.57l-.47.02v-.5c-.19-.02-.36.06-.57.04 0 .16.09.36.09.54h-.48c-.01.18.04.36.06.54.16.01.3-.15.46-.04.11.38-.18.6-.24.9l-.03-.06c-.14-.02-.27-.05-.37.06-.03.49-.39-.15-.57.22.04.48-.42-.07-.55.29.09.43-.33.11-.46.36-.16.2.14.38.06.56.31.23.57.61.67.97-.48-.11-1.07-.05-1.51-.22.02.3.23.52.21.8-.84.22-1.37 1.06-1.57 1.86-.12.44-.52.78-.5 1.25.17.01.32-.24.48-.17-.14.65-.54 1.19-.59 1.88.18.12.41-.27.64-.27-.09.7 0 1.38-.22 2.03.17.3.4-.26.61-.22-.02.23.07.52 0 .73-1.51.07-2.87.57-4.33.79-.55.22-.57.89-.77 1.36-.11.42.5.38.39.78-2.38.02-4.64-.32-6.91-.54 1.02.8 2.11 1.45 3.22 2.04v.06c-1.2.54-2.46.85-3.73 1.2 3.16.44 6.39.75 9.74.64 1.24-.05 2.48-.09 3.64-.36.27-.18.07-.56.2-.77 3.73.49 7.45 1.84 11.4 1.02.54 0 .24-.63.36-.86 1.82.04 3.51.81 5.36.47.31.44.76.65 1.25.54.86-.13 1.33-1.42 2.34-.94.77.52 2.19 1.13 3.49 1.19l-.52-.56c-3.78-.72-5.72-3.88-5.72-6.85l.05-.07zm.164-5.716c.124.52.718.808 1.184.862-.415.38-.54 1.084-1.163 1.192-.415.036-.766-.264-.892-.63-.217-.755.55-.855.865-1.42l.006-.004zm-1.41 2.158c.18-.108.45-.144.648-.055.253.13.505.35.523.66-.018 1.1-.477 1.92-.405 3.15.045.77.126 1.33.342 1.94-1.018-.73-1.072-1.51-1.054-2.87.01-.43-.343-.75-.703-.99-.28-.18-.56-.11-.83-.13.55-.52 1.073-1.12 1.506-1.71l-.02.02zm-1.614-1.03c-.315.27-.766.288-1.18.234-1.055.018-2.1-.884-3.065-.144l-.108.162c-.054-.155.036-.502.306-.593 1.397-.665 3.894 1.577 4.327-.938.162.437.108.975-.262 1.285l-.018-.006zm-1.676.775c-.694.11-1.352.53-2.064.31-.2-.09-.18-.34-.11-.5.2-.27.542-.11.822-.12l1.36.32-.008.01zm1.036.55c-1.388.18-3.37 1.52-4.425-.14-.28-.54-.226-1.31.162-1.78 1.27-1.35 2.947.15 4.407-.27.217-.18.45-.39.433-.7l-.018-.36c.18.26.19.69.05.98-.07.24-.32.43-.55.52-1.26.21-2.43-.77-3.66-.19-.34.26-.5.62-.52 1.01 0 .29.07.55.27.74 1.05.91 2.29-.1 3.39-.21.61-.09 1.23.07 1.57.55-.06.09-.16.18-.24.25-.27-.18-.53-.37-.88-.35l-.02-.02zm-.054 2.18c.252-.32.577-.45.928-.47.343.02.64.12.857.43.53.74-.28 2.02.77 2.98-.24-.07-.44.07-.67.06-.64-.58-.56-1.52-.47-2.33-.05-.16-.12-.36-.31-.45-.22-.05-.49 0-.62.24-.02.14.02.38.2.41.07 0 .13-.07.16-.12-.02-.07-.06-.13-.05-.22.06-.07.18-.07.27-.03.15.13.09.29.04.45-.17.19-.42.25-.67.19-.15-.09-.37-.23-.42-.41-.09-.24-.05-.53.05-.73l-.02.04zm-5.57 1c.144-.2 0-.45-.036-.67l-.262-.89c1.82.35 3.434 1.4 5.318 1.66.09.31.415.51.667.62l.64.06c.036.6.253 1.1.613 1.55-.26.29-.442.66-.604.94-1.55-.23-3.118-.61-4.795-.42.288-.43.126-.98 0-1.44-.26-.2-.35-.65-.748-.68-.27.31.28.55.28.89.14.47.05.99-.24 1.35-.39.2-1.08.42-1.07 1.03-.88 0-1.66-.15-2.48-.26-.37-.32-.62-.86-1.17-.77-.11-.05-.24-.09-.36-.03.07.33-.48.24-.25.58-.3.13-.19-.37-.41-.48.04-.16.23-.41-.04-.48-.12-.02-.22.11-.23.2.18.35-.44.29-.2.64-.11.06-.25-.09-.27-.2.04-.2-.27-.31-.11-.52.07-.03.07-.16 0-.22-.06-.13-.2-.03-.26 0-.15.17.12.56-.27.52l-.02.24c-.36.09-.18-.37-.45-.46.02-.18.3-.39.03-.52-.11 0-.24.08-.27.2 0 .17-.07.35-.27.35l-.02.29c-.35.06-.16-.41-.42-.51.02-.38.22-.76.55-.92 1.46.14 3.02-.69 4.31.22.58-.32 1.53.38 1.84-.5l.13-.54c.2.14.37.36.57.47.16-.14 0-.3-.02-.45-.16-.43-.28-.87-.33-1.35.27.13.39.49.67.65l-.08-.1zm-8.14-2.7c.358 1.39-1.376 2.09-1.59 3.34-.232-1.41 1.107-2.2 1.59-3.34v.01zm-2.055 1.91c-.19-1.32 1.26-2.05 1.79-2.99-.05 1.23-1.3 1.97-1.78 2.99zm1 2.28c-.3-.97.77-1.6 1.18-2.4.18-.27.27-.56.36-.86.43 1.38-1.03 2.17-1.53 3.27zm.2 1.15l-.34-.03c.04-.07.11-.14.18-.21.1.02.1.17.16.25h.01zm.41-.9c.22-.79 1.43-1.37 1.33-2.4.22.31.26.76.15 1.11-.2.65-1 .87-1.46 1.3h-.01zm.31.4l-.02.58-.31-.04c.02-.2.16-.4.34-.54v.01zm3.64-2.57l-1.6.09c-.11-.03-.18-.2-.09-.31.27-.21.56-.45.9-.47.36.07.71.16.95.43.04.13-.03.24-.14.26v.01zm.73 1.2l-.51-.05c-.07-.22-.18-.43-.37-.62.44-.07.71.36.9.67l-.01.01zm-1.06.04l-.74.08c.02-.27.09-.6.33-.75.31.09.38.41.44.69h-.01zm-1.17-.64l.22-.01c-.21.2-.32.46-.36.77l-.44.02c.13-.25.24-.67.6-.78l-.01.01zm5.04-.38c-.62-1.01-2.22-1.49-1.96-2.85.47 1.04 2 1.55 1.97 2.85v.01zm-1.81-3.94c.68.88 2.11 1.35 2.04 2.63-.6-.92-2.02-1.39-2.02-2.63h-.01zm1.43 5.16c-.64-.97-2.1-1.6-1.93-2.98.32 1.14 2.15 1.61 1.93 2.97v.01zm-.64.06c-.44-.12-1.06-.12-1.37-.64-.23-.38-.35-.94-.14-1.39.02.9.95 1.45 1.52 2.03l-.01.01zm1.09-5.74c-.51-.36-1.48-.57-1.51-1.43.72.17 1.15.83 1.53 1.43h-.01zm.29 1.57c-.75-.75-2.14-1.04-2.23-2.26.66.89 1.98 1.06 2.24 2.25l-.01.01zm-3.98-4.58c.18.11.36-.03.38-.2.01-.15-.17-.24-.29-.26L81 5.31l.77.34-.05.237-.23-.11-.14.43.16.07s-.083.296-.443.215c-.15-.03-.16-.23-.105-.38zm-.16-.86c-.01-.01-.19.32-.2.34-.1.02-.28-.04-.3.14-.09.25.09.43.28.36 0 .11-.08.26-.22.31-.16.05-.34-.03-.4-.18l.01-.11.18.01v-.56l-.2-.01.02-.22s-.18-.05-.28-.04c-.1.01-.23.03-.23.03v.25h-.16v.55l.22-.01s.01.27-.16.32c-.27.06-.36.03-.41-.16l-.01-.12s.26 0 .26-.21c0-.13-.02-.28-.17-.3-.1-.01-.13.05-.24.05-.01-.01-.1-.37-.11-.39.66-.22 1.44-.32 2.15-.09l-.03.05zm.66 1.71c-.02.05-.07.09-.11.12-.99-.2-2.12-.11-3.05.18-.05-.03-.1-.05-.14-.11.91-.39 2.25-.45 3.3-.19h.01zm-3.66-.83c-.16-.06-.17-.22-.17-.22.21-.2.55-.36.82-.49.02.01-.02.37 0 .37-.03.08-.1.03-.21.18-.1.13.02.37.18.36.13-.01.19-.01.19-.01.07.22-.09.32-.25.4-.23.12-.34-.19-.34-.19l.18-.09-.23-.44s-.07.19-.16.17v-.02zm-.75 1.4c.55-.07 1.07.09 1.47.47.04-.07.15-.11.18-.18 0-.01 0-.05-.01-.07.35-.1.71-.21 1.09-.23.45-.03.92.03 1.36.11.02.07.09.18.18.18.23-.13.35-.4.61-.51.22-.07.5-.12.72-.1-.07.33-.09.67-.37.92-.11.15-.34.06-.38.24.41.58.36 1.48.21 2.17-.09.17-.16.29-.43.38-.09.04-.26.04-.26.04l-.02.11.36.23-.03.21-.34-.16-.05.19.35.23-.04.18-.35-.15-.07.22.36.22-.07.33-1.09-.42v-.49c.18-.09.35-.25.41-.44.02-.11.05-.29-.06-.38-.21.15-.38.22-.65.24-.34.04-.54-.07-.67-.14-.11.18-.04.35.07.52.11.15.39.24.39.24v.53l-1.02.5-.09-.28.33-.21-.08-.24-.33.2-.07-.17.37-.24-.08-.23-.38.21-.04-.14.37-.28-.02-.13c-.31-.04-.68-.11-.79-.46-.18-.563-.2-1.25-.16-1.84.02-.09.24-.15.09-.24-.51.02-.73-.57-.89-.94v-.09l-.04-.04zm-.37.62c-.02.72-.78 1.1-1.28 1.5.22-.61.69-1.22 1.29-1.49zm-1.62 3.44c.18-1.22 1.43-1.84 2.16-2.69.02.53-.39.89-.73 1.23l-1.43 1.46zm-3.53 4.37c.82 0 1.5-.3 2.25-.47.71-.1 1.43.04 2.07-.19.04.36.23.7.09 1.08l-.98.11c-.41.13-.89.32-1.07.72-.09-.13.07-.43-.2-.43-.07 0-.16.04-.2.12.02.07.07.17.04.24-.21.07-.3.27-.18.45-.03.04-.11.02-.14.02-.18-.13-.1-.38-.3-.49-.07-.14.13-.23 0-.34-.09-.07-.25-.07-.32 0-.11.2.06.49-.27.54l.07.33c-.23.11-.25-.18-.32-.29-.03-.18-.25-.29-.09-.47.06-.08-.07-.15-.14-.15-.11-.02-.18.05-.21.12.13.22-.13.31-.27.37l.04.44c-.18 0-.23-.19-.29-.32.04-.17-.19-.14-.21-.3.13-.39.16-.94.64-1.04l.04-.03zm-5.26 4.19c.77-.31 1.57-.5 2.3-.92-.76-.4-1.58-.68-2.3-1.21 2.47.2 5.11.35 7.69.22.02.58-.21 1.12-.16 1.64.29.36.72.33 1.09.43-2.83.24-5.85.15-8.61-.16zm10.26-.02c-.79-.01-1.65-.05-2.36-.3l-.09-.1c.68-.35 1.7-.29 2.46-.13l-.02.54h.01zm6.31.24l-6.08-1.1c-.84-.16-1.82-.09-2.62.02.14-.54.18-1.15.14-1.71.09-.3.44-.29.68-.43 1-.25 2.05 0 3.03.11 2.48.47 4.91 1.03 7.49 1.19.09.58-.05 1.2-.03 1.75.18.29.5.28.77.35-1.12.08-2.29-.02-3.37-.16h.01zm5.46 0c-.78.05-1.62.02-2.32-.22.63-.36 1.43-.4 2.18-.42l.18.02c-.05.2 0 .41-.03.61zm.46-.94c-1.07-.11-2.07.05-3 .38.09-.61.11-1.3.07-1.91.52-.67 1.41-.59 2.21-.65 1.43-.05 2.62.25 4.01.52.29.84 1.21 1.39 1.54 2.21-1.64.15-3.19-.44-4.84-.53l.01-.01zm3.94-1.66c-.16-.25-.09-.61.02-.85.16-.27.43-.52.73-.58.43-.09.8.09 1.12.34.46.47.75 1.12 1.15 1.66-.45-.16-1.09-.09-1.47.31-.12.22-.25.42-.29.68-.35-.52-.81-1.05-1.28-1.55l.02-.01zm3.3 2.16c-.02-.27-.11-.52-.38-.65-.14-.05-.36-.09-.48.02-.24.13-.22.38-.18.58.05.09.11.2.24.17.22-.14-.18-.41.15-.5.15-.02.24.18.3.29.02.28-.09.51-.33.64-.26.04-.5.09-.72-.05-.24-.18-.42-.43-.43-.74-.04-.41.23-.81.6-.99.82-.39 1.42.35 2 .87-.31.04-.62.11-.82.4l.04-.01z"/><path d="M83.834 18.84l-.002-.198-.973-.155v.237l.09.018v.875c-.07.146-.24.146-.41.146-.37 0-.24-1.33-.24-1.33l-.88-.128v.22s.1.026.16.053c.03.456-.11.975.3 1.267.28.182.72.273 1.09.09.01 0 .12.13.12.13l.67.1v-.22l-.13-.027V18.87l.15.018v-.05zm-3.146.495c-.163.045-.523-.01-.523-.01v-.455s.153.027.207.09c.072.092.135.21.288.156-.027 0 0-.51-.01-.52-.053-.036-.197-.027-.206.064-.09.055-.306 0-.306 0v-.438s.513-.01.676.22c.072.1.108.296.108.296l.243.018-.072-.55-1.803-.338v.21l.19.063-.01 1.05-.198-.03v.22l1.74.34.198-.53-.234-.09c-.08.13-.19.19-.316.23l.028.03zm8.797-1.704l-.01.63.118-.01s.1-.18.207-.23c.063-.03.298 0 .298 0v1.07h-.217v.19l1.01.18.01-.14-.18-.11-.01-1.06s.2.04.25.1c.08.11.22.35.22.35l.17.01V18l-1.87-.31.03-.03zm-.685 1.2c-.244.15-.595.02-.595.02l.01-.35s.323-.06.323.09l.153.01v-.46h-.15s-.08.21-.35.17v-.43c.15-.07.33-.09.51.01.14.07.26.32.26.32h.17l-.1-.56H87.3v.24l.2.04v1.01l-.18.08v.17h1.73l.15-.44-.234-.02s-.07.1-.145.14l.01.01zm-10.934-1.01l.208.11-.01 1.03c-.053.04-.207-.01-.207-.01l-.027.19s1.082.22 1.082.21v-.2l-.17-.04v-1.08l.197-.01v-.15l-1.09-.21v.19l.01-.01zm14.052-2.07l-.126-.25-2.677-.49.108.17c.875.24 1.785.48 2.695.59zm.036.58l.163-.22c-1.217-.19-2.425-.41-3.606-.68l.11.15c1.08.33 2.19.61 3.34.76zm-.234-1.14c-.018-.08.018-.23-.09-.26-.667-.09-1.38-.16-1.983-.25l.09.11c.64.18 1.316.34 1.974.41l.01.01zm7.3-8.15l-.116.04c.32.29 0 .76.372 1.02 1.318.41 3.012.34 4.335-.03.49-.2.02-.78.38-1.07-1.55-.57-3.46-.56-4.97.04l.01.02zm4.57.78c-1.28.34-2.923.35-4.19.01v-.4c1.158-.49 3.01-.48 4.185-.06v.43l.006.01z"/><path d="M97.93 5.16l-.07.078c.482.428.75.975.982 1.512 1.606-.6 3.765-.656 5.335-.036.145-.328.232-.656.447-.938.123-.22.48-.602.48-.602l-.098-.082s.135-.127.153-.237c.01-.218.06-.437-.09-.565-.18-.11-.42-.09-.58-.036 0-.146-.04-.292-.15-.4-.18-.2-.47-.037-.63.017 0-.16-.08-.27-.2-.38-.18-.09-.42-.02-.56.11-.08-.11-.11-.25-.24-.34-.18-.14-.45-.02-.57.08l-.12-.35-.2-.47-.07-.47.63.16v-.9l-.63.17.11-.9h-.95l.12.9-.68-.16v.88l.68-.15-.08.52-.17.46-.09.36c-.13-.09-.25-.16-.43-.14-.21 0-.29.24-.36.37-.13-.11-.29-.18-.47-.14-.21.06-.28.3-.35.45L99 3.8c-.2-.04-.442-.04-.532.18-.106.07.074.4-.142.31-.2-.11-.44-.02-.55.16-.17.226-.044.554.127.654l.01.06zm6.462-.157l-.105.364c-.127-.1-.18-.145-.27-.237l-.316.62c.1.018.25.027.32.137-.14.246-.37.39-.61.29-.3-.126-.27-.363-.21-.618.19 0 .26.04.33.13.1-.09.3-.28.21-.53-.04-.13-.29-.16-.4-.12.14-.22.17-.47-.09-.63.4.12.83.36 1.19.62l-.03-.04zm-1.22-.63c-.39.01-.43.32-.368.566-.09-.06-.28-.19-.428-.07-.2.15-.145.45-.072.65.117-.11.28-.1.423-.05-.027.23-.135.48-.514.49-.44.01-.44-.39-.423-.48.108-.02.18.01.315.05-.072-.24-.063-.54.01-.77h-.307l.09-.4h-.82l.072.42c-.126.01-.216 0-.316 0 .127.25.18.55.073.74.126-.02.216.01.306-.04.045.14-.036.49-.37.52-.306.02-.477-.15-.504-.45.13-.07.2-.07.33-.01.03-.03.11-.13.11-.23-.03-.19-.02-.37-.21-.43-.15-.06-.33.07-.33.07s.02-.26-.02-.37c-.05-.11-.18-.21-.33-.22.94-.32 2.31-.42 3.31 0l-.05-.05zm-3.334 0c-.238.138-.225.247-.238.338-.018.13.155.34.155.34s-.247-.06-.324.01c-.18.17-.12.29-.1.49.01.11.09.17.16.24.11-.1.16-.13.4-.14.07.24-.02.52-.31.62-.32.11-.46-.06-.57-.29.09-.06.13-.08.32-.11l-.3-.64-.33.29-.1-.18-.04-.21c.34-.25.94-.6 1.34-.7l-.02-.04zM100 7.81l.59.09.107-.064c.568-.063 1.127-.082 1.722-.01l.07.102.53-.11c-.89-.282-2.13-.29-3.03.01l.01-.02zM83.583 17c.622.056 1.298-.087 1.94-.123.464-.218.445-.902.338-1.336-.05 0-.1.04-.14.06-.1.35.06.83-.3 1.03l-1.8.22-.03.17h.01zm8.166-.195c.07-.07.05-.18.09-.252-1.13-.18-2.25-.343-3.32-.63 0 .053.03.108.09.144 1 .34 2.07.556 3.14.738zm23.75 2.114s.42.01.54 0v-.18h-.14v-.72l.9 1.01h.24V17.7h.12v-.2l-.5-.015v.192h.13v.41l-.65-.62-.88-.02.02.2h.31l.01 1.067-.14.02-.02.19.01-.014zm-1.2-1.47c-.29.03-.58.06-.77.3-.2.18-.27.45-.2.72.05.23.23.4.42.53.31.11.73.09 1.01-.06.39-.19.49-.67.35-1.04-.18-.32-.51-.47-.84-.45l.01-.01zm.05 1.44c-.21.03-.34-.18-.36-.52-.04-.37-.19-.73.2-.76.29-.02.29.32.32.59.04.32.05.64-.17.69l.01-.01zm4.33-2.29c-.09 0-.18 0-.2.09.07.29-.07.75.2.95.73.13 1.44.31 2.08.67.05.03.23.09.22-.06-.58-.45-1.27-.7-1.99-.83-.38-.11-.09-.61-.33-.83l.01-.01z"/><path d="M136.142 18.75c1.107-.613 2.213-1.3 3.213-2.13-2.232.326-4.39.56-6.747.543-.18-.055-.036-.343-.144-.47-.622-.92-2.033-.648-3.07-.612-.714-.07-1.57.76-2.07-.12-.315-.28-.783-.23-1.207-.27-.766.18-1.46.65-2.226.78.24-.52.04-1.13 0-1.69.02-.12.04-.27.17-.32.29.53.82.8 1.35.76.03-.2-.28-.34-.31-.54.49.22 1.15.02 1.61.27-.02-.4-.53-.74-.75-1.01.44 0 .79.02 1.15.07-.11-.45-.47-.9-.78-1.19l.83.02c.26-.03.56 0 .79-.03-.16-.44-.6-.81-1-.99l.8-.11c.23-.1.59.01.8-.1-.33-.5-.86-.77-1.33-1.01l1.18-.33c.17 0 .4.03.49-.04-.33-.47-.85-.69-1.33-.87V9.3c.27-.055.47-.29.7-.438.16-.11.42-.09.52-.255-.42-.4-1-.46-1.55-.61v-.05c.36-.22.64-.56 1-.773v-.08c-.55-.36-1.3-.36-1.98-.34.18-.22.29-.45.34-.704.09-.237.29-.435.38-.633-.58-.1-1.18.06-1.69.27l.31-1.22-.05-.03c-.58.02-1.13.33-1.62.65-.03-.41.13-.75.2-1.08-.47.036-.89.22-1.29.44-.53.29-1.11.773-1.04 1.44-.03.035-.14.02-.12.11.2.143.25.41.31.61-.16-.11-.29-.28-.31-.467-.12-.22-.37-.41-.64-.28.11.13.25.367.25.568-.31-.164-.3-.52-.55-.74-.12-.073-.32-.13-.44-.04l.23.4-.03.06c-.35-.164-.29-.54-.59-.72-.11-.09-.36-.09-.45 0 .09.164.27.328.25.51-.41-.164-.54-1.05-1.11-.74.13.13.29.257.29.41-.36-.09-.38-.48-.64-.663-.14-.05-.32-.123-.43-.032.11.11.2.24.17.367-.24-.036-.23-.31-.42-.43-.1-.18-.32-.27-.54-.2.06.11.18.24.17.35-.23-.11-.21-.476-.51-.53-.11.02-.22.13-.18.273.07.126.18.236.3.29.54-.08.78.53 1.34.4.24.255.53.383.88.365.23.2.5.344.84.31.25.426.82.034 1.07.5.2.18.64-.038.7.272h-.06c-.67-.346-1.15.22-1.64.52-.62.27-1.4.236-1.86.774-.09.57-.36 1.23-.04 1.77.07.058.23.076.16.22l.6.668c.2.167.507.11.75.09.63-.46 1.54-.72 2.29-.324-.06.253-.12.563-.43.654-.105.072-.05.33-.27.236-.19 0-.26.218-.26.38l.2.074c.07.09.07.182 0 .255-.11.125-.28.125-.43.09-.16-.074-.303-.256-.23-.457.09-.02.15.126.24.07-.02-.22.11-.365.11-.55l-.26-.035c0-.12.16-.23.13-.352-.17-.075-.423-.057-.62-.02l-.074.42-.5.053c-.09-.074-.05-.24-.2-.265l-1.2.26c-.215.02-.495.18-.36.46-.225.2-.495.87-.87.46-.3.34-.52.81-.81 1.19-.14.17-.05.44.15.49 0 .2-.09.38-.18.54-.15-.02-.28 0-.355.13l-.1 1.5c.06.17.24.13.34.2-.02.07.04.17-.03.23-1.56-.04-2.91.46-4.4.49-.12-.34-.27-.72-.58-.97.43-.42.55-.98.64-1.54.5.04.91-.13 1.23-.54 1.02.04 2.137.15 3.137-.09l-.05-.05c-.17-.16.04-.3.06-.44-.98.09-2.02.09-3 0 .13-.94-.78-1.44-1.29-2.05.11-.11.24-.18.36-.25 1.27-.11 2.31.64 3.61.47.764-.11 1.64-.63 1.84-1.46.16-.66.14-1.47-.32-1.99-.84-.97-2.31-.88-3.435-.6-.53.07-1.31.48-1.73-.11-.18-.25-.09-.65-.02-.9-.24-.04-.39.2-.55.33-.39.53-.29 1.3-.09 1.84-.39-.13-.6-.54-.73-.88h-.03c-.22.4-.09.94.054 1.34.2.45.71.74 1.07.89-.313.08-.583.31-.84.45-.14-.09-.23-.3-.374-.44-.12-.19-.55-.12-.45-.37.27-.83-.518-1.31-1.04-1.82-.09-.7-.506-1.61-1.37-1.84-.68-.18-1.29-.1-1.73.45-.29.36-.38.72-.327 1.16-.35-.13-.68-.4-1.05-.44-.06.146-.07.33-.02.51.55.18 1.03.5 1.44.79h.942c.21-.03.37-.082.51-.255.16-.21.214-.43.11-.67-.11-.22-.21-.343-.53-.343-.27 0-.32.2-.32.39 0 .165.08.19.18.18.1-.02.05-.15.11-.236.04-.056.08-.12.14-.09.11.05.15.135.18.25.04.22-.107.39-.31.49-.24.11-.47.02-.66-.16-.24-.24-.23-.53-.12-.85.09-.31.25-.49.55-.62.383-.17.74-.07 1.09.186.474.35.663.96.384 1.5-.216.41-.59.64-1.02.61v.81c1.28 1.56 1.616 3.03 1.616 4.36 0 3.08-2.01 6.27-5.86 6.89l-.49.55c1.37-.06 2.61-.57 3.72-1.28 1.17-.47 1.61 1.28 2.78.94.34-.07.64-.4.86-.7.66.11 1.38.18 2.09.11 1.24-.06 2.36-.488 3.55-.45.02.253-.04.56.14.74 1.47.36 3.2.4 4.75.22.38.11.84.232 1.2-.02.82-.15 1.57.142 2.38.16.39.09.66-.13.85-.36 1.697-.435 3.37-.92 5.12-1.18.236.02.09.4.16.58.19.33.606.29.93.38 3.12.284 6.37-.02 9.366-.51-1.304-.38-2.64-.69-3.873-1.21l-.128-.035zm-9.906-2.454c.284 0 .572 0 .768.2-1.09.324-2.214.595-3.375.775.86-.19 1.72-.68 2.61-.97h-.01zm-2.374-2.832c-.072-.036-.162-.036-.216-.127-.018-.107.036-.215.126-.252.08-.018.19 0 .19.11.035.11-.055.198-.11.27h.01zm.712.163c-.054-.126-.018-.307.108-.324.406.128.55.656.893.902-.397.037-.82-.21-1-.574zm.478-.902c-.036-.126-.108-.288-.018-.433.09-.01.144-.01.234 0l.874 1.14c-.432-.056-.82-.338-1.09-.703v-.01zm.333-.975c-.036-.055 0-.144-.018-.215.08-.09.262-.073.37-.02l1.135.867c-.603.055-1.108-.18-1.505-.632h.018zm2.037-.54c-.703.198-1.45.02-1.875-.56-.018-.108.073-.18.163-.2.658.073 1.135.543 1.712.76zm.28-1.244c-.667.18-1.65.27-2.127-.274-.02-.124.108-.18.19-.233.693.03 1.324.23 1.928.5h.01zm-.09-1.32c-.56.402-1.452.31-2.146.238-.144-.054-.108-.21 0-.3.658-.43 1.46-.037 2.137.072l.01-.01zm-.45-1.384c-.57.53-1.416.602-2.128.766-.108-.055-.054-.22-.036-.31.53-.538 1.388-.392 2.154-.446l.01-.01zm-1.146-1.366c-.144.81-1.072.865-1.47 1.485-.16 0-.143-.17-.197-.26.14-.81 1.05-.94 1.65-1.2l.01-.02zm-1.253-.866c0 .684-.74 1.066-.928 1.677-.144-.037-.162-.21-.216-.32-.1-.72.64-1.056 1.13-1.348l.01-.01zm-2.523.42c.27-.338.658-.63 1.018-.775 0 .674-.532 1.157-1.055 1.503-.17-.19-.036-.5.037-.72v-.01zm-.857 6.623c.144.073.307.037.343-.127-.072-.538.405-.975.514-1.495.387 0 .748-.26.928-.62.072-.23.144-.55.018-.79-.054-.05-.144-.14-.198-.03-.054.31-.18.71-.532.79-.56.2-1.18 0-1.73-.09-.523.13-1.09.11-1.47.57-.144.13-.396.08-.54-.03-.09-.07-.2-.21-.055-.28.18-.13.5.02.64-.22.04-.19-.1-.35-.28-.43-.35-.21-.89.62-.87-.15l.08-.5c.17.11.42.19.59.11.11-.03.21-.15.16-.26-.16-.3-.37.02-.59 0 .04-.24.35-.25.52-.34.7-.11 1.36-.35 1.86-.92.46-.15 1 .24 1.43-.09.17-.37.46-.74.86-.94.06.46.27 1.03-.1 1.41.05.11.2.13.31.08.13-.07.13-.21.18-.34 1.26.77 1.7 2.15 1.46 3.57-.18.68-.36 1.34-.71 1.93-.01 0-.12-.2-.25-.18.06-.13.07-.37-.07-.48-.27 0-.35.4-.66.27-.09.09-.14.18-.14.29.05.07.14.04.19.13.02.16-.12.25-.24.29-.2.02-.39-.09-.45-.28-.02-.09-.05-.25.02-.31.12.04.34.3.38 0 0-.18.34-.37.05-.5l-.22-.05c.04-.11.18-.16.17-.31-.2-.11-.37-.22-.6-.23-.09.07-.05.18-.05.29-.12.06-.17-.14-.3-.11-.09.18-.16.4-.21.6l.31.11c-.13.18-.34.31-.54.26-.11-.07-.27-.13-.3-.27-.04-.08.04-.19.13-.21l.04-.06zm-2.66-.556c.11.037.073.22.11.328-.27.146-.577.164-.875.237-.054-.11-.072-.246-.054-.355l.82-.2v-.01zm-2.45 1.93c.18-.218.253-.482.43-.7l.286.182c-.13.29-.27.54-.45.79-.09-.08-.39-.11-.27-.27v-.01zm-.495 1.43l.356.02-.072.92-.352-.037.072-.902h-.004zm-4.162-2.413c.18.146.343.364.415.598.04.288-.07.522-.27.7-.14.182-.39.2-.62.145-.14-.032-.27-.214-.32-.358-.02-.15.06-.29.18-.32.35-.09.06.54.41.29.08-.13.04-.32-.05-.45-.12-.13-.35-.19-.53-.1-.57.4-.05 1.1-.18 1.69-.03.43-.23.79-.57 1.1-.19-.07-.46-.07-.66 0 .59-.65.54-1.64.5-2.51.04-.3.24-.58.46-.78.4-.2.86-.2 1.26 0l-.01-.03zM110.49 8.91v-.07c1.462 1.14 3.068-.182 4.638-.037.35.11.658.47.532.885-.054-.216-.29-.433-.523-.486-1.568-.2-3.515 1.405-4.66-.308l.014.02zm4.907.903c.018.164-.18.328-.325.343-.766.11-1.496-.124-2.23-.287.767-.17 1.533-.49 2.338-.33.125.04.18.16.217.27zm.192.434c.34-.288.54-.665.45-1.102.03-.357-.35-.592-.55-.79-1.25-.51-2.43.446-3.72.232-.26-.127-.48-.414-.48-.722V7.81c.16.273.43.47.74.47 1.39-.09 3.36-1.242 4.37.292.19.343.23.847.1 1.246-.09.38-.43.72-.75.92-1.68.832-3.29-1.135-4.86.11l-.22-.18c1.39-1.54 3.25.41 4.89-.42h-.01zm-7.42-.106c-.52-.18-.68-.59-1.09-1.11.41-.05.83-.35 1.01-.77 0-.07.05-.11.05-.18.47.47 1.43 1.05.8 1.8-.21.19-.46.37-.77.26l-.01.01zm.22 1.06c-.01-.27.06-.61.33-.82.23-.18.48-.28.74-.16l1.75 1.82c-.52-.12-1.02.04-1.37.49-.63.8.12 2.08-.55 2.87l-.63.62c.48-1.55.32-3.42-.28-4.8l-.01-.01zm.47 8.96c-.2.23-.48.32-.79.27-.23-.07-.36-.27-.44-.47-.04-.18.01-.36.18-.43.1-.01.23.02.25.13.03.13-.18.28.02.35.12.02.23-.13.25-.24.03-.23-.09-.44-.3-.53-.18-.05-.4-.02-.54.13-.17.13-.16.35-.17.53-.27-.23-.6-.34-.91-.34.58-.52 1.18-1.15 2.02-.95.28.13.6.44.62.76.03.31-.02.6-.17.83h-.03zm.52-.9c-.08-.3-.37-.75-.75-.94-.34-.16-.81-.1-1.11.04.59-.83 1.03-2.41 2.41-2.03.32.11.6.45.65.78.19.98-1 1.37-1.2 2.17h-.01zm.41.49c.21-.45.63-.9 1-1.31.04.04.14.15.14.15v.71l-.14.02-.01.18h.53l.01-.15-.15-.03v-.42l.54.58.52-.78.08.5s-.09.03-.17.04c-.02.09.01.21.01.21l.98-.17-.03-.26s-.13.04-.16.04l-.14-.95.17-.04-.03-.26-.62.11-.39.81-.65-.7-.17.01.1-.27c1.95-.22 4-.9 6.02-.32.17.07.28.18.33.32.2.44-.1 1.14.08 1.63.02.09.05.16.04.27-2.66-.96-5.18.63-7.87.16h-.06zm5.66.49l-.07-.58c.78-.05 1.56.04 2.24.34l-.02.08c-.66.22-1.43.22-2.16.17zm2.17.16c.13-.09.34-.16.41-.34l-.02-.43c.18.17.38.29.64.29 0 .2.23.36.36.43l-1.39.06-.01.01zm.47-1.56c0-.18.2-.22.32-.25.59-.09 1 .23 1.49.39-.36.07-.7.22-1 .47-.32-.07-.63-.31-.81-.62l-.01.01zm5.82 1.55c-.46.25-.97-.02-1.44-.03-.64-.09-1.34-.2-1.92.09-.46-.18-.91-.43-1.34-.74.21-.42.73-.43 1.18-.47.63.2 1.14.72 1.93.52.18.02.36-.04.43-.22-.21-.34-.64-.32-.97-.43-1.24-.27-2.23-1.08-3.59-1.03-.42-.47-.11-1.19-.17-1.79.09-.12.38-.27.23-.45-.06-.11-.2-.07-.27-.03l-.59.38c.02.18.05.38.03.54-.4-.07-.86-.21-1.32-.21-.13-.38.42-.07.38-.42l.11-1.37c-.02-.28-.44-.2-.23-.51.12.01.3.12.41 0l.77-1.26c.03-.15-.07-.27-.16-.33l.18-.2c.2.34.57.02.86.02.29-.2.98.04.91-.55v-.08l.32-.05c-.01.26-.03.61-.23.76-.46.17-1.18.05-1.61.27l-.38.68c.98-.25 2.12-.24 3.08-.56 1 .39 2.04.72 2.98 1.31-.36.49-.16 1.09-.09 1.66-.04.66-.4 1.18-.86 1.62-.41-.4.29-.68.32-1.08.09-.23.18-.64-.05-.83-.36.02-.09.47-.25.65-.13.3-.35.54-.42.85-.22-.06-.44-.29-.56-.47-.1-.24.31-.51-.02-.67-.34.28-.64.68-1.05.82-.06.06-.09.13-.06.19.25.29.55-.13.8.2.93.72 1.8 1.58 2.84 2.06.32.39-.02.83-.18 1.18l-.06.04zm-.48-2.99h.11v-.02h-.11v.02zm.96.98c.16-.09.38-.01.52.08.25.22.38.83-.02.99 0 0-.48-1.06-.5-1.06h-.01zm.35 1.65c0-.6.82-.31 1-.85.07-.29.03-.63-.15-.86-.53-.58-1.32-.07-1.96-.05l-.33-.22c2.75-.32 5.19-1.51 8.12-1.3.27.08.56.15.73.44.05.6.01 1.25.18 1.82-2.7-.5-5.12.52-7.6 1.03h-.01zm5.28-.16c-.02-.22-.17-.53-.04-.65.78-.07 1.64-.09 2.33.16-.06.24-.35.16-.52.27-.57.09-1.17.18-1.79.22v-.01zm1.75.12c.27-.09.72-.14.94-.45-.02-.54-.22-1.06-.19-1.62 1.5-.03 2.99-.18 4.48-.31-.73.54-1.61.85-2.43 1.22.65.43 1.55.63 2.33.94-1.66.19-3.41.34-5.14.21V20z"/><path d="M111.226 15.683l2.25-.468c.196-.11.553-.046.624-.292-.892.164-1.766.355-2.686.447-.162.018-.126.2-.198.3l.01.013zm-.01.543c1.037-.2 2.046-.383 3.03-.665.125-.05.314-.05.296-.25-1.127.36-2.38.43-3.515.7l.17.21.02.01zm3.3-.21l.07-.127c-1.053.23-2.198.39-3.27.59l.09.21c1.045-.2 2.1-.37 3.1-.69l.01.01zm-3.102-1.175l-.018.21c.658-.09 1.298-.23 1.92-.41l.072-.13-1.983.32.01.02zm19.424 2.25l.235.03v1.12l-.163.02v.15l.92.1v-.16l-.207-.06-.027-1.09s.117.05.18.1c.072.05.054.18.054.18l.144.05v-.37c-.397-.16-.892-.23-1.36-.22l-.02.52.136-.02.08-.31h.028zm-.28 1.08h-.143l-.117-1.04.19-.02-.055-.2-.965.11.018.19.145-.02.15 1.07-.14.06.02.18.93-.12-.02-.19v.01zm-3.244-.38c-.063-.3-.47-.3-.865-.22.01 0-.77.23-.77.23l.04.15.11-.03.26 1.04-.09.14.05.14.75-.18-.09-.21-.07.02-.07-.37s.2-.02.26.05c.12.13.26.47.26.47l.57-.17-.46-.53s.19-.02.09-.5v.01zm-.784.52c.018.02-.117-.47-.117-.47s.28-.16.396.14c.08.22-.15.3-.27.33l-.01.01zm2.39-1.14c-.326-.09-.696-.05-.966.13-.324.16-.36.5-.324.85.036.22.225.41.423.52.28.1.658.06.92-.07.252-.14.378-.42.378-.73-.01-.29-.16-.58-.45-.7l.02.01zm-.236 1.35c-.225.07-.288-.12-.396-.48-.1-.32-.226-.65.036-.73.27-.08.378.3.46.57.098.37.144.58-.09.65h-.01zm-23.84-.46l-.145-.03c.07-.09.27-.11.21-.27-.34-.29-.77-.16-1.19-.2l-.07-.05c.18-.2.5-.09.73-.09.11.02.22-.09.16-.2-.31.07-.72.04-1.02.2-.07.07-.04.17.02.24.37.06.89-.13 1.17.16l-.09.04c-.47-.2-1 .12-1.45-.11l.07-.15c-.18-.14-.45-.18-.68-.16-.09.11.07.28-.04.39-.22 0-.11-.21-.17-.32l-.25-.02c-.14.07-.01.2-.05.29.22.09.31.35.47.49-.07.09-.22.28-.3.09-.11.04-.25.08-.29.19.21.44.6.02.87-.03l.07.04c.15-.23.44-.23.64-.29.15.18-.16.16-.23.27-.09.09-.24-.09-.29.07 0 .07-.07.13 0 .2.29.11.5-.21.8-.2.22-.02 0-.22.16-.31.12-.11.3-.18.41 0l-.13.13c-.09-.02-.11-.16-.22-.11-.06.04-.06.09-.06.12-.02.2.2.17.29.22.21-.16.42-.34.55-.57v.02zm-2.93-4.53h3.822V9.39h-3.822v4.182-.047zm.27-.28h3.245V9.66h-3.22v3.608l-.03-.035z"/><path d="M102.695 17.216c.144-.018.288-.18.395-.125.072.02.052-.07.104-.09.334-.07.64-.3 1.037-.21-.01.04 0 .13-.07.13-.16.17-.56 0-.57.31.07.02.13.13.24.09.14-.18.37-.12.59-.14.37.11.07-.3.37-.34.2.04.48-.08.62.11 0 .06-.01.09-.05.11-.05.06-.12.02-.16-.03-.07-.05-.16-.02-.18.06.02.22.22.19.34.26.22-.13.33-.37.38-.61-.14-.03-.29 0-.39-.1.11 0 .27-.09.23-.24-.35-.41-1.03-.12-1.55-.18l-.07-.05c.24-.24.73.02.86-.3-.01-.05-.09-.05-.12-.05-.27.22-.74.02-.91.36.38.44.97-.02 1.47.13.07-.02.2.09.15.15-.61-.05-1.34.13-1.97-.05.04-.07.07-.1.09-.17-.21-.16-.54-.14-.77-.18 0 .17.06.29-.03.42-.06.07-.12-.02-.16-.05-.08-.08 0-.14.02-.21-.03-.18-.2-.04-.3-.11-.1.04-.05.18-.1.27.3.06.24.47.51.54-.07.07-.12.14-.21.18-.07-.04-.05-.13-.13-.11-.1.07-.3.05-.29.23.15.39.4 0 .66.09"/><path d="M102.16 15.826c.09.055.18-.015.27-.036.248.036.444-.25.66-.178.373-.237.802-.36 1.266-.325l-.088.18c-.2.072-.538-.036-.608.18 0 .18.196.11.303.164.198-.23.57 0 .768-.19-.16-.16.13-.2.18-.3.22.13.56-.16.67.16-.08.2-.22-.14-.35.04-.03.22.18.24.33.31.24-.11.36-.36.36-.63-.12-.03-.26 0-.35-.1.07-.11.29-.04.25-.23-.44-.45-1.15-.04-1.73-.21 0-.04 0-.05.02-.07.25-.2.74.17.83-.22-.04-.07-.11-.04-.16-.04-.22.24-.76-.05-.85.36.04.11.16.13.25.15.49.04 1.08-.23 1.47.07-.71.06-1.51.15-2.21-.03l.04-.14c-.19-.16-.46-.23-.71-.16-.01.09.06.17.04.26-.03.06-.01.18-.13.17-.15-.05-.08-.19-.07-.32-.03-.12-.18-.03-.25-.09-.15.02-.1.2-.15.3.22.13.33.39.52.57-.19.29-.43-.12-.59.22-.03.11.11.15.13.24"/><path d="M105.08 19.142c.72-.458 1.802-1.576 2.306-2.936.565-1.52.514-2.743.104-4.226-.25-.902-.832-1.65-.832-1.65V8.538h-1.978l-.672-.37-.39.124.43.25h-4.886l.482-.216-.435-.124s-.51.27-.75.34h-2v1.893c-.93 1.43-1.38 3.635-.76 5.385.63 1.786 1.29 2.378 2.45 3.334 1.28.602 2.55 1.12 3.46 2.415.64-1.25 1.93-1.71 3.46-2.42v-.01zm1.632-8.04c.485.828.725 1.84.723 2.855-.004 1.003-.245 2.014-.723 2.852v-5.72zm-10.19 5.664c-.982-1.57-.966-4.042 0-5.63v5.63zm4.872 3.698c-1-1.1-2.256-1.117-3.445-2.183-1.01-.9-.88-2.75-.88-4.07h4.32v6.26zm0-6.602h-4.32v-4.71h4.32s.015 3.158 0 4.71zm.338-4.71h4.355v4.71h-4.362v-4.71h.007zm0 11.33V14.2h4.426c.085 2.07.018 3.837-1.785 4.666-.892.447-1.944.793-2.64 1.604v.01z"/><path d="M97.485 10.85c.267-.056.588-.074.802-.308.072.162.125-.02.217-.037.373-.055.694-.342 1.087-.2l-.01.02c-.05.255-.42.2-.64.234-.07.2.11.26.27.26.24-.18.62-.02.82-.22-.16-.15.11-.15.15-.29.22.12.56-.17.66.15l-.05.03c-.07 0-.14-.04-.21-.08-.03.02-.07.05-.05.11-.06.22.18.23.31.26.27-.11.31-.4.35-.65-.13-.08-.25.03-.34-.09.09-.04.29-.09.22-.26-.31-.35-.94-.18-1.37-.17-.09.01-.21.01-.21-.11.07-.11.24-.04.36-.06.18.02.42-.02.34-.22l-.11-.04c-.19.21-.53.06-.74.21-.02.09-.03.22.06.27.47.11 1.02-.17 1.51.05.04.04.02.09-.02.11-.68-.06-1.48.13-2.14-.07l.06-.15c-.22-.11-.49-.31-.77-.17-.02.12.15.34-.07.42-.27-.09 0-.26-.12-.4-.07.02-.23-.04-.31.03-.2.37.32.5.44.79l-.05.05c-.07.05-.18.11-.19-.02-.14-.06-.19.11-.3.12-.11.14.11.24.16.3l-.04.04zm2.466 7.836c.37.2.64.574 1.02.665.2-1.49.15-4.82.15-4.82h-2.08c-.46.04-.18.65-.49.87-.07.06-.25.11-.3-.03-.02-.16.09-.26.2-.35.06-.14.13-.36 0-.49-.14-.12-.35-.14-.53-.11-.12.08-.21.2-.25.33-.07.21 0 .47.18.59 0 .17-.12.3-.23.41-.09.12-.01.3.09.39.2 1.16 1.17 2.33 2.29 2.58h-.02zm.37-.346c-.49-.274-1.2-.638-1.35-1.267.49.265.95.574 1.4.884-.05.11 0 .264-.02.374l-.01.01zm.27-3.235l-.03.465c-.28-.09-.53-.31-.75-.474h.79v.01zm-1.08.192l1.04.62-.02.3c-.39-.164-.81-.474-1.18-.71l.18-.22-.01.01zm-.33.455c.45.283.91.538 1.33.866l-.03.3c-.49-.236-.98-.564-1.4-.902l.13-.273-.01.01zm-.09.647l1.36.86-.05.34-1.6-1.01-.12-.26c.09-.18.31-.04.43.05zm6.19-6.28c-.02-.15-.18-.19-.29-.17-.34.31-.38.86-.21 1.28 0 .27.64.54.26.72-.23-.17-.51-.31-.67-.57-.11-.28 0-.59.11-.81.09-.22-.04-.42.13-.6-.1-.04-.15-.13-.24-.18-.23-.02-.53 0-.67.2-.04.18.14.14.25.16.02.14-.25.01-.2.19l.2.09c-.1.11-.25.21-.4.23-.21-.09-.45-.2-.52-.45l.11-.09c.02-.21-.23-.15-.34-.21-.02.11-.22.13-.2.3.27.22.45.63.75.83-.05.04-.1.07-.18.12-.08.05-.26.05-.26-.11-.24-.09-.13.19-.31.21.05.15-.04.2.01.35l.16.01c.26-.27.57-.17.88-.35l.2.34-.26.07c-.21.17.2.31 0 .48-.12.11-.26-.04-.3-.15-.21-.08-.1.21-.28.21-.12.16.15.14.07.33.06.05.09.07.16.09.13-.26.43-.18.64-.29.13-.02.31-.22.16-.33.11.02.2-.07.27.02-.1.39.46.29.44.59-.05-.02-.07-.11-.16-.08-.12.15-.16.31 0 .46.19-.09.46-.28.52-.51.01-.21-.18-.26-.31-.36 0-.09.03-.18.05-.27.11.07.2.17.34.16.17-.03.23-.22.17-.36-.37-.36-.58-.85-.42-1.39.04-.09.07-.29.24-.24.2.2-.1.36-.09.56 0 .15.15.2.24.29.07.01.21.07.23-.06-.25-.18-.21-.52-.18-.81l-.03.02z"/><path d="M100.554 11.895c-.072 0-.054.09-.054.144.036.16.216.14.323.2.248-.15.303-.4.355-.64-.107-.06-.285.03-.355-.09.088-.02.212-.11.212-.22-.356-.51-1.052-.11-1.586-.26.14-.27.56-.02.76-.22.05-.06 0-.15-.05-.17-.27.13-.61.08-.86.21-.09.11-.06.26.07.3.5.11 1.09-.22 1.48.11l-.05.07c-.68-.18-1.39.11-2.04-.05-.2-.04.03-.13 0-.24h-.11c-.16-.22-.47-.11-.64-.17-.15.12.1.2 0 .34-.02.09-.13.15-.2.06-.13-.09.02-.18 0-.29-.07-.15-.18.01-.29-.08-.09.03-.11.13-.13.21-.02.11.11.14.18.18.05.2.31.3.26.48-.06.03-.18.16-.24 0-.15-.06-.2.13-.31.16-.02.13.07.18.16.26.28-.09.6-.08.85-.26.09.07.09-.06.16-.09.37-.07.71-.29 1.11-.24-.06.04.01.16-.09.16-.17.02-.29.17-.45.08-.11-.02-.17.08-.15.18-.03.16.15.08.24.12.2-.2.58-.15.85-.13-.2.19-.56.03-.78.21-.04.09-.02.2.06.25.49.12 1.02-.15 1.51.07.04.01.02.08-.02.1-.73-.17-1.44.12-2.15-.09.03-.04.09-.11.03-.19h-.09c-.15-.24-.45-.09-.65-.13-.04.16.11.31-.04.42-.23-.05-.11-.24-.18-.37-.09.02-.2-.07-.31.02-.02.09-.02.24 0 .3.22.08.27.34.48.45l-.09.11c-.07.09-.2.02-.25-.06-.11.07-.32.11-.25.29.09.2.28.09.43.09.25.02.42-.24.62-.16.35-.24.76-.33 1.17-.38.14 0 .02.12.02.2-.22.03-.41.07-.61.07 0 .07-.11.16 0 .22.24.13.55-.09.85-.02.39.03.02-.33.38-.42.2.07.44-.06.62.1 0 .25-.18 0-.29.05-.05.01-.04.07-.04.12-.04.2.2.15.3.22.23-.15.28-.42.34-.66-.12.02-.25.04-.34-.07.1-.04.29-.11.22-.28-.39-.37-1.02-.13-1.49-.16l-.09-.07.07-.06c.19-.13.6.09.67-.22 0-.11-.15-.05-.18-.05 0-.07.02-.15-.02-.18.14-.36.53-.13.8-.13.03.05.09.11.02.16-.13.06-.16-.09-.27-.07l.07.1zm23.407-.243c0 .073.09.09.15.11.44-.556.51-1.303.53-2.055-.07-.547-.16-1.14-.6-1.467-.07 0-.11.073-.11.146.66.938.41 2.29.06 3.264l-.01.002zm-2.97-4.362c-.3 0-.36.322-.54.464.09.2.32.29.53.325.39.1.84.03 1.09-.25-.36-.19-.63-.62-1.09-.55h.01zm-.16.536c.04-.09.06-.2.17-.255l.04.3-.2-.03zm.61-.182l.26.182c-.07.11-.21.11-.33.128 0-.073.09-.182.09-.31h-.01zM11.38 40.254v-.63c-1.478 0-2.4-.34-2.4-1.913v-10.6c2.92 0 3.613.53 3.885 2.86h.687v-4.24H.467v4.24h.684c.27-2.33.97-2.86 3.89-2.86v10.61c0 1.58-.92 1.92-2.4 1.92v.63h8.75v-.01zm12.66-6.964v4.426c0 1.41-.753 1.88-1.964 1.92v.63h7.668v-.63c-1.394 0-1.937-.346-1.937-1.918v-9.446c0-1.572.543-1.917 1.937-1.917v-.63h-7.67v.63c1.212.04 1.965.508 1.965 1.918v3.845H19.1v-3.845c0-1.403.754-1.877 1.964-1.914v-.63h-7.072v.63c.952.2 1.343.34 1.343 1.92v9.44c0 1.57-.545 1.92-1.938 1.92v.62h7.668v-.63c-1.207-.04-1.965-.51-1.965-1.92v-4.42h4.94v-.01zm18.468 6.977v-4.315h-.504c-.812 3.103-1.776 3.29-3.11 3.29h-1.776c-.847 0-1.01-.287-1.01-1.06v-4.917c2.155.036 3.65-.24 3.786 1.826h.54v-4.63h-.54c-.135 1.81-1.72 1.64-3.776 1.64v-5.35h2.262c2.308 0 3.3.9 3.515 3.11h.442v-4.13h-11.88v.63c1.394 0 1.937.35 1.937 1.92v9.44c0 1.58-.543 1.92-1.938 1.92v.63h12.05l.002.01zm7.487.078l.406.01c.13-.365.36-.703.8-.703.81 0 1.49.975 4.58.975 2.01 0 4.53-1.503 4.53-4.91 0-4.984-7.89-4.128-7.89-7.49 0-1.24 1.14-1.83 2.41-1.83 1.89 0 3.21 1.457 3.8 3.306h.43V25.74h-.61c-.1.32-.17.52-.48.52-.71 0-1.29-.894-3.36-.894-2.52 0-5.14 1.103-5.14 4.3 0 5.35 8 4.61 8 7.964 0 1.093-1.23 1.995-2.72 1.995-1.99 0-3.98-1.622-4.31-3.69h-.57l.16 4.428v-.018zm105.443-.055v-.583c-1.19 0-1.66-.756-1.66-2.323V28.6c0-1.566.326-2.195 1.453-2.195v-.638h-6.71v.647c1.14 0 1.48.63 1.48 2.196v8.746c0 1.572-.47 2.332-1.67 2.332v.59h7.14l-.02.012zm9.76-.015L169.66 28.6v8.757c0 1.738-.304 2.148-1.936 2.332v.59h7.563v-.59c-1.812-.18-1.938-.76-1.938-2.33V28.7c0-1.95.33-2.052 1.94-2.33v-.64h-5.91l-3.54 9.46-3.48-9.46h-5.89v.636c1.37 0 1.92.755 1.92 2.322v8.865c0 1.567-.28 1.85-1.92 2.104v.593h5.14v-.593c-1.88-.29-1.94-.536-1.94-2.103V29.2l4.35 11.06h1.12l.03.01zm23.107-.013v-4.32h-.505c-.808 3.105-1.776 3.292-3.11 3.292h-1.775c-.85 0-1.01-.287-1.01-1.06v-4.916c2.147.037 3.64-.24 3.78 1.826h.54v-4.632h-.548c-.135 1.81-1.723 1.635-3.782 1.635v-5.342h2.262c2.302 0 3.29.898 3.516 3.103h.44v-4.125h-11.87v.63c1.394 0 1.94.345 1.94 1.917v9.494c0 1.572-.546 1.92-1.94 1.92v.574h12.053l.01.004zm1.764.075h.4c.12-.367.36-.693.79-.693.42 0 2.31.977 4.58.977 2 0 4.52-1.51 4.52-4.91 0-4.99-7.9-4.13-7.9-7.49 0-1.24 1.13-1.83 2.4-1.83 1.88 0 3.2 1.45 3.79 3.31h.43v-3.96h-.61c-.1.32-.17.53-.48.53-.71 0-1.3-.89-3.36-.89-2.53 0-5.15 1.1-5.15 4.3 0 5.35 7.99 4.61 7.99 7.96 0 1.09-1.25 2-2.72 2-2 0-3.99-1.63-4.33-3.69h-.57l.16 4.43h.02zm-44.43-.074v-.63c-1.48 0-2.41-.336-2.41-1.912V27.11c2.92 0 3.61.53 3.88 2.86h.68v-4.24h-13.07v4.24h.68c.27-2.33.96-2.86 3.88-2.86v10.61c0 1.573-.92 1.918-2.41 1.918v.63h8.74v-.005zM75.75 26.368c.806 0 1.08.203 1.784 1.06v10.27c0 1.57-.712 1.918-2.193 1.918v.647h5.8v-.638c-1.59 0-2.29-.346-2.29-1.913v-8.118h.05l8.13 10.678h1.71V28.61c0-1.576.52-2.136 1.94-2.242v-.642H85.7v.642c1.432.277 1.74.666 1.74 2.24v6.1h-.04l-6.635-8.982H70.387v.642c1.293.04 1.91.653 1.91 1.917v7.112c0 2.693-.864 3.713-3.04 3.713-1.377 0-3.03-.65-3.03-2.817v-8.008c0-1.57.54-1.917 1.938-1.917v-.642h-7.57v.642c1.394 0 1.937.346 1.937 1.917v7.736c0 3.48 2.385 4.64 5.656 4.64 3.578 0 5.47-1.27 5.47-4.68v-7.7c0-1.57.66-1.92 2.083-1.92l.01.01zm17.547 11.315c0 1.567-.55 1.913-1.938 1.913v.638h7.17c4.51 0 7.59-1.914 7.59-7.253 0-5.39-3.08-7.28-7.6-7.28h-7.17v.64c1.39 0 1.93.35 1.93 1.92v9.41l.01.03zm3.74-10.934c3.778-.45 5.31 2.55 5.31 5.85 0 4.8-1.262 6.51-3.984 6.51-.892 0-1.325-.33-1.325-1.51V26.75z"/><path d="M120.152 39.63c-.896.005-1.507-.456-1.872-1.35l-4.593-13.03-2.62.687-4.07 11.753c-.59 1.53-1.375 1.86-2.6 1.94v.63h5.718v-.63c-1.232 0-2.046-.388-2.046-.92 0-.387.1-.692.26-1.14l.73-1.796h4.28l.93 2.123c.11.282.22.65.22.977 0 .49-.36.757-.83.757h-1.11v.63h15.41v-.64c-1.39 0-2.21-.34-2.21-1.91v-4.3l3.4-5.47c.85-1.3 1.39-1.44 2.58-1.55v-.64h-5.21v.65c.81 0 1.38.23 1.38.8 0 .48-.22.91-.43 1.3l-2.31 3.5-2.04-3.52c-.26-.51-.57-1.05-.57-1.43 0-.36.32-.63 1.13-.63v-.63h-7.65v.65c.79.15 1.7.04 2.38 1.1l3.66 5.93v4.29c0 1.58-.89 1.93-1.95 1.93l-.03-.03zm-7.146-5.112h-3.538l1.77-5.28 1.768 5.285v-.005z"/></g></svg>
